PathFileType	4	(X/Y/Z)	Patient4_TMGait_0pt4_02_left_21.trc.trc
DataRate	CameraRate	NumFrames	NumMarkers	Units	OrigDataRate	OrigDataStartFrame	OrigNumFrames
77.777777777778	77.777777777778	4	33	mm	77.777777777778	124	       141
Frame#	Time	Sacral			L.Shoulder			Chest			R.Shoulder			Neck			R.ASIS			L.ASIS			R.Thigh.Superior			R.Thigh.Lateral			R.Thigh.Inferior			R.Patella			L.Thigh.Superior			L.Thigh.Lateral			L.Thigh.Inferior			L.Patella			L.Shank.Superior			L.Shank.Lateral			L.Shank.Inferior			R.Shank.Superior			R.Shank.Lateral			R.Shank.Inferior			R.Heel			R.Midfoot.Superior			R.Midfoot.Lateral			R.Toe			L.Heel			L.Midfoot.Lateral			L.Midfoot.Superior			L.Toe			L.Elbow			L.Wrist			R.Elbow			R.Wrist			
		X1	Y1	Z1	X2	Y2	Z2	X3	Y3	Z3	X4	Y4	Z4	X5	Y5	Z5	X6	Y6	Z6	X7	Y7	Z7	X8	Y8	Z8	X9	Y9	Z9	X10	Y10	Z10	X11	Y11	Z11	X12	Y12	Z12	X13	Y13	Z13	X14	Y14	Z14	X15	Y15	Z15	X16	Y16	Z16	X17	Y17	Z17	X18	Y18	Z18	X19	Y19	Z19	X20	Y20	Z20	X21	Y21	Z21	X22	Y22	Z22	X23	Y23	Z23	X24	Y24	Z24	X25	Y25	Z25	X26	Y26	Z26	X27	Y27	Z27	X28	Y28	Z28	X29	Y29	Z29	X30	Y30	Z30	X31	Y31	Z31	X32	Y32	Z32	X33	Y33	Z33	

124	29.781428571429	916.178978560033	1003.617847204224	534.601308023646	1065.859116681293	1431.606587532604	334.992680681347	1194.761186238000	1360.385413841269	474.249149813718	1145.533853199783	1431.266427149854	661.507844620615	1080.777211588473	1491.964639164213	491.617917881632	1156.256840962331	936.654519628818	621.299436059288	1108.221227031937	957.452459299784	349.455841538554	1157.608121757953	726.266631790894	592.780426677600	1062.275015755236	628.737989372455	662.205505810035	1118.949698134831	565.707828660175	578.082378791728	1103.079104559734	480.930124855621	584.352293159199	1180.561333643538	763.290747937981	373.012111929875	1117.297859210553	636.996671805596	302.638505115058	1220.656480340054	573.513631657183	357.932850824327	1243.302620119877	509.495508891776	355.624250760567	1224.370154085776	439.008883812381	346.062112073326	1153.143252511958	311.497827222454	296.612114301990	1239.051027170826	209.370758945147	347.461073530114	1066.070012874992	395.983649052254	593.216390215227	987.161116545724	300.487079370202	660.744290435506	1013.377125545203	201.994489335288	593.443582113867	865.819254925306	43.638998299008	565.731447143349	1037.014501060184	96.053422752723	600.537424581815	949.318271255943	36.689799860647	640.629696462651	1157.723985437071	42.385337830314	627.593637214678	1148.882537667406	39.911093028019	388.949574816958	1218.803218472362	39.469048355590	305.180741133458	1298.004431470755	107.612256381381	325.215316714618	1426.753697094382	65.654971454893	290.932740107354	940.358403925243	1096.792078721296	246.219837559961	949.987696882704	834.291216659610	241.381780380965	1260.295755638131	1101.604203224898	763.663172311346	1488.125484860152	1114.339545627425	655.974301395908	
125	29.794285714286	917.490597756282	1002.801965139322	531.743893993018	1066.406028872865	1430.795421523722	331.937695889884	1195.160457758667	1360.163737007177	471.632763647627	1145.051190966361	1430.921547386480	658.723438686140	1080.754262361455	1491.374652076579	488.619274263144	1157.520369154920	936.146596152551	619.493414954390	1110.212614816535	956.515206004066	347.623511379483	1158.107957264801	725.345820583011	591.766789713217	1061.273177471671	628.512215667325	660.675325326578	1117.913498808360	564.793952700586	577.143334098923	1101.334428126800	479.916075971796	583.234370188699	1182.081445786404	761.378967297788	371.984966789427	1117.697961056891	635.557673277404	302.026984852178	1220.495461456293	571.876418919914	358.098935065588	1242.093518961886	507.034909736228	356.197217051598	1222.512629184861	436.241600734643	346.435803303032	1149.356472231503	309.638126984056	297.281246798340	1233.359084713476	206.272598835660	348.725613084577	1063.601304552072	395.388477050245	592.252875353148	983.819075654288	300.798526738777	660.038492569293	1009.224848751270	201.849334740864	593.099997214088	860.670224984518	43.862531185456	565.864523441477	1031.945308539175	96.037494065637	600.563707094819	944.190278394318	36.676365956044	640.652079084525	1152.601193012255	42.169268001387	627.678860387637	1139.790946981818	39.175337938918	390.311053537154	1209.738501895140	37.798503554554	306.480154639623	1290.622477529825	103.726259054136	327.317142406626	1418.696593628050	58.782547254517	292.763553258899	942.647127371128	1095.329380560510	242.891224050307	955.515503831348	832.827490860230	237.946401819228	1259.891442606253	1100.857685018282	760.273212640802	1487.490724845796	1112.461865564879	651.785927536649	
126	29.807142857143	918.765339746399	1002.191315736776	528.827125667160	1067.102206128529	1430.093085658299	328.748702812049	1195.668142536887	1360.032834949875	468.914034486291	1144.689834973708	1430.770940927780	655.802587772648	1080.844439310617	1490.936632464534	485.461071434971	1158.693137421962	935.720723239436	617.534474562274	1112.096022206675	955.838466348433	345.695711696194	1158.663544898470	724.528721994265	590.519773517840	1060.496746232883	628.333111361559	658.958543263591	1117.136933825604	563.963253347137	575.972785415235	1099.940130992501	478.894575135822	581.933486808836	1183.623377681653	759.910292697576	370.936860603904	1118.350322970954	634.624563810639	301.212705260216	1220.560157656788	570.811013476575	358.175913674214	1241.007097736745	505.144984087401	356.644049502055	1220.993331202090	434.032358053449	346.516622393301	1146.256849918060	308.283141131775	297.444368648417	1228.387952510589	203.847113343304	349.604684210539	1061.389813503248	394.810958846623	591.141515259131	980.672979185521	301.215399392439	659.226710203381	1005.205304172959	201.773638393627	592.706675689229	855.535623248411	44.244203907187	566.031297720689	1026.943997687794	96.059870573997	600.589327944406	939.100910395644	36.722862730056	640.674848402998	1147.520983346607	41.916286223250	627.763869400629	1131.808514055273	38.705264050422	391.187081687075	1201.835326232532	36.690988864665	307.354371474410	1283.991065520302	100.827300198177	328.985374826227	1411.559431102033	53.564153724625	294.290216654928	945.498093920530	1093.821748528684	239.289644479926	961.677807786139	831.364628924436	234.161671979799	1259.090528051372	1100.181545390562	757.044472059181	1486.669407700299	1109.587933743502	647.947606013431	
127	29.820000000000	919.971320374314	1001.825730644349	525.880324529671	1067.925611605658	1429.539182088745	325.466978612031	1196.282845896256	1359.997356253747	466.100823256219	1144.506670661793	1430.838399068202	652.758778297502	1081.057696707296	1490.676161388122	482.178390682536	1159.731756221288	935.414570964915	615.387081489833	1113.799387674050	955.452807291696	343.623077897212	1159.239507648813	723.863122030112	588.987449673802	1059.996089784356	628.215569540719	657.059350906577	1116.673540244066	563.248513347654	574.556487795869	1098.987252514753	477.868740875305	580.482615264737	1185.182470299166	759.026125759097	369.817279440255	1119.327547398704	634.234123011746	300.193004584262	1220.946068275756	570.363677151802	358.066084586716	1240.153847076931	503.851953604136	356.869786563328	1219.881180565783	432.397363213144	346.289811545292	1143.863193519871	307.455705864176	297.105190128083	1224.125129602460	202.092208516462	350.105246790027	1059.499931706502	394.262448701473	589.903641638999	977.767164761913	301.759381718852	658.317981552294	1001.353788307465	201.788850543073	592.273659703269	850.425729653336	44.851046559928	566.228928916663	1022.036182971945	96.133136846428	600.619132310523	934.060057800637	36.867539068224	640.701437091956	1142.492959134832	41.617877914612	627.848412073926	1124.909339837225	38.464227778476	391.644527028392	1195.036709207134	36.073245603053	307.844224189441	1278.063017966118	98.885613761179	330.180554303706	1405.290263820081	49.979684607669	295.430208048619	948.895280600489	1092.324436199025	235.434490851421	968.466738888224	829.968413730053	230.055724204785	1257.878026378955	1099.591727110116	753.989293722684	1485.619771283152	1105.717372624395	644.498024073563	
